# xmcd
#
# Track frame offsets: 
#        150
#        16921
#        29724
#        44530
#        57152
#        75697
#        93972
#        108637
#        124745
#        147804
#        154814
#        166683
#        180500
#        192982
#        209607
#        220397
#        233471
#
# Disc length: 3282 seconds
#
# Revision: 0
# Processed by: cddbd v1.5.2PL0 Copyright (c) Steve Scherf et al.
# Submitted via: ExactAudioCopy v0.99pb4
#
DISCID=e70cd011
DTITLE=Krayzie Bone - Fixtape Vol. 1 - Smoke On This
DYEAR=2007
DGENRE=Rap
TTITLE0=Sweet Jane
TTITLE1=Go Hard 4 My Money
TTITLE2=Perfect Execution
TTITLE3=King Kong ft. Cheek Da Freek
TTITLE4=Stay Down ft. Nosse/Asho
TTITLE5=Ain't Nutting Changed
TTITLE6=Can't Get Out The Game
TTITLE7=We Ain't Really Living ft. Da Bum Keef G
TTITLE8=In The Chevelet ft. Cheek Da Freek
TTITLE9=Can You Feel It (Weed Intermission)
TTITLE10=Pay My Rent With This ft. Da Bum Keef G
TTITLE11=Maybe It's Me
TTITLE12=We Still Here
TTITLE13=Mary, Mary
TTITLE14=Crooked Cops
TTITLE15=Whatchuwando
TTITLE16=Look At Me
EXTD=
EXTT0=
EXTT1=
EXTT2=
EXTT3=
EXTT4=
EXTT5=
EXTT6=
EXTT7=
EXTT8=
EXTT9=
EXTT10=
EXTT11=
EXTT12=
EXTT13=
EXTT14=
EXTT15=
EXTT16=
PLAYORDER=
